<?xml version="1.0" encoding="UTF-8" standalone="no"?>
<!DOCTYPE svg PUBLIC "-//W3C//DTD SVG 1.1//EN" "http://www.w3.org/Graphics/SVG/1.1/DTD/svg11.dtd">
<svg width="100%" height="100%" viewBox="0 0 860 87" version="1.1" xmlns="http://www.w3.org/2000/svg" xmlns:xlink="http://www.w3.org/1999/xlink" xml:space="preserve" xmlns:serif="http://www.serif.com/" style="fill-rule:evenodd;clip-rule:evenodd;stroke-linejoin:round;stroke-miterlimit:2;">
    <g transform="matrix(1,0,0,1,-11063,-7316.81)">
        <g transform="matrix(1.32117,0,0,1.32117,10224.6,7307.16)">
            <g transform="matrix(1.43922,0,0,1.43922,586.155,-288.425)">
                <g transform="matrix(49.7378,0,0,49.7378,488.748,251.029)">
                </g>
                <text x="30.763px" y="251.029px" style="font-family:'SpecialGothicExpandedOne-Regular', 'Special Gothic Expanded One';font-size:49.738px;fill:rgb(219,219,219);">M<tspan x="87.911px 101.142px 139.241px 181.518px 216.981px 248.017px 256.572px 295.517px 337.794px 378.778px 411.107px 446.57px " y="251.029px 251.029px 251.029px 251.029px 251.029px 251.029px 251.029px 251.029px 251.029px 251.029px 251.029px 251.029px ">IKAEL DAHLEN</tspan></text>
            </g>
            <g transform="matrix(1,0,0,1,-7628.05,-2294.51)">
                <path d="M8824.6,2312.18L8831.25,2301.81L8844.78,2301.81L8834.24,2312.18L8824.6,2312.18Z" style="fill:rgb(219,219,219);fill-rule:nonzero;"/>
            </g>
        </g>
    </g>
</svg>
