<?xml version="1.0" encoding="UTF-8" standalone="no"?>
<!DOCTYPE svg PUBLIC "-//W3C//DTD SVG 1.1//EN" "http://www.w3.org/Graphics/SVG/1.1/DTD/svg11.dtd">
<svg width="100%" height="100%" viewBox="0 0 451 46" version="1.1" xmlns="http://www.w3.org/2000/svg" xmlns:xlink="http://www.w3.org/1999/xlink" xml:space="preserve" xmlns:serif="http://www.serif.com/" style="fill-rule:evenodd;clip-rule:evenodd;stroke-linejoin:round;stroke-miterlimit:2;">
    <g transform="matrix(1,0,0,1,-8761.3,-7504.75)">
        <g transform="matrix(1,0,0,1,7485.71,7450.38)">
            <g transform="matrix(0.995128,0,0,0.995128,1242.11,-150.107)">
                <path d="M149.139,251.029L130.437,251.029L119.893,236.306L113.974,241.927L113.974,251.029L104.026,251.029L104.026,215.715L113.974,215.715L113.974,231.183L130.089,215.715L142.225,215.715L127.055,230.238L140.428,248.388L156.351,215.715L166.895,215.715L184.104,251.029L173.51,251.029L169.631,242.673L152.968,242.673L149.139,251.029ZM156.152,235.908L166.547,235.908L161.374,224.767L156.152,235.908ZM33.648,251.029L33.648,215.715L48.668,215.715L60.506,240.236L60.556,240.236L72.393,215.715L87.513,215.715L87.513,251.029L77.566,251.029L77.566,224.867L77.516,224.867L64.783,251.029L55.681,251.029L42.948,224.867L42.899,224.867L42.899,251.029L33.648,251.029ZM90.796,251.029L90.796,215.715L100.744,215.715L100.744,251.029L90.796,251.029ZM184.403,251.029L184.403,215.715L217.23,215.715L217.23,223.076L194.35,223.076L194.35,229.641L214.991,229.641L214.991,236.704L194.35,236.704L194.35,243.667L217.578,243.667L217.578,251.029L184.403,251.029ZM219.866,251.029L219.866,215.715L229.813,215.715L229.813,243.667L251.001,243.667L251.001,251.029L219.866,251.029ZM259.457,251.029L259.457,215.715L278.506,215.715C283.182,215.715 287.053,216.477 290.12,218.003C293.187,219.528 295.484,221.625 297.009,224.295C298.534,226.964 299.297,230.006 299.297,233.421C299.297,236.804 298.534,239.821 297.009,242.474C295.484,245.126 293.187,247.215 290.12,248.741C287.053,250.266 283.182,251.029 278.506,251.029L259.457,251.029ZM269.404,243.667L277.81,243.667C281.69,243.667 284.566,242.805 286.44,241.081C288.313,239.357 289.25,237.003 289.25,234.018L289.25,232.725C289.25,229.675 288.313,227.304 286.44,225.613C284.566,223.922 281.69,223.076 277.81,223.076L269.404,223.076L269.404,243.667ZM295.417,251.029L312.627,215.715L323.171,215.715L340.38,251.029L329.786,251.029L325.907,242.673L309.244,242.673L305.415,251.029L295.417,251.029ZM312.428,235.908L322.823,235.908L317.65,224.767L312.428,235.908ZM340.679,251.029L340.679,215.715L350.626,215.715L350.626,229.691L368.432,229.691L368.432,215.715L378.38,215.715L378.38,251.029L368.432,251.029L368.432,237.052L350.626,237.052L350.626,251.029L340.679,251.029ZM381.663,251.029L381.663,215.715L391.61,215.715L391.61,243.667L412.798,243.667L412.798,251.029L381.663,251.029ZM413.992,251.029L413.992,215.715L446.819,215.715L446.819,223.076L423.94,223.076L423.94,229.641L444.581,229.641L444.581,236.704L423.94,236.704L423.94,243.667L447.167,243.667L447.167,251.029L413.992,251.029ZM449.455,251.029L449.455,215.715L459.651,215.715L476.562,235.51L476.612,235.51L476.612,215.715L485.863,215.715L485.863,251.029L478.253,251.029L458.756,228.249L458.706,228.249L458.706,251.029L449.455,251.029ZM424.114,212.681L428.739,205.478L438.136,205.478L430.813,212.681L424.114,212.681Z"/>
            </g>
        </g>
    </g>
</svg>
