<?xml version="1.0" encoding="UTF-8" standalone="no"?>
<!DOCTYPE svg PUBLIC "-//W3C//DTD SVG 1.1//EN" "http://www.w3.org/Graphics/SVG/1.1/DTD/svg11.dtd">
<svg width="100%" height="100%" viewBox="0 0 5 12" version="1.1" xmlns="http://www.w3.org/2000/svg" xmlns:xlink="http://www.w3.org/1999/xlink" xml:space="preserve" xmlns:serif="http://www.serif.com/" style="fill-rule:evenodd;clip-rule:evenodd;stroke-linejoin:round;stroke-miterlimit:2;">
    <g transform="matrix(1,0,0,1,-688.574,-2632.48)">
        <g transform="matrix(0.604543,0,0,0.967003,-766.536,2426.4)">
            <g transform="matrix(1,0,0,1,106.7,104.486)">
                <g transform="matrix(1.11022e-16,-1.03412,1.65414,5.55112e-17,23.1106,3273.27)">
                    <path d="M3048.22,1378.59L3048.22,1379.57L3052.85,1381.53L3052.85,1380.69L3049.06,1379.12L3049.06,1379.05L3052.85,1377.47L3052.85,1376.63L3048.22,1378.59Z"/>
                </g>
                <g transform="matrix(1.11022e-16,1.03412,1.65414,-5.55112e-17,23.1106,-3043.61)">
                    <path d="M3048.22,1378.59L3048.22,1379.57L3052.85,1381.53L3052.85,1380.69L3049.06,1379.12L3049.06,1379.05L3052.85,1377.47L3052.85,1376.63L3048.22,1378.59Z"/>
                </g>
            </g>
        </g>
    </g>
</svg>
